<?xml version="1.0" standalone="no"?>
<!DOCTYPE svg PUBLIC "-//W3C//DTD SVG 20010904//EN"
 "http://www.w3.org/TR/2001/REC-SVG-20010904/DTD/svg10.dtd">
<svg version="1.0" xmlns="http://www.w3.org/2000/svg"
 width="586.000000pt" height="320.000000pt" viewBox="0 0 586.000000 320.000000"
 preserveAspectRatio="xMidYMid meet">

<g transform="translate(0.000000,320.000000) scale(0.100000,-0.100000)"
fill="#000000" stroke="none">
<path d="M3148 3176 c-20 -7 -50 -22 -66 -32 -28 -18 -3054 -2970 -3060 -2986
-2 -4 43 -8 100 -8 l103 0 1335 1316 c734 723 1345 1319 1358 1324 29 12 67
-2 84 -32 10 -18 14 -218 18 -988 l5 -965 238 234 237 234 0 867 0 867 -23 44
c-56 106 -214 166 -329 125z"/>
<path d="M4061 3142 c-10 -8 -1 -18 40 -45 90 -57 142 -127 180 -239 38 -114
24 -290 -33 -402 -26 -50 -108 -137 -166 -176 -53 -35 -42 -45 41 -38 69 6
138 41 192 99 77 82 111 176 121 329 13 194 -66 354 -218 444 -49 28 -134 43
-157 28z"/>
<path d="M4475 3140 c-4 -6 -5 -12 -4 -14 2 -1 25 -14 50 -29 187 -107 257
-408 148 -635 -27 -54 -106 -142 -164 -180 -24 -16 -42 -32 -38 -36 3 -3 29
-6 57 -6 99 0 208 73 269 180 52 90 79 272 58 385 -32 173 -179 329 -322 343
-29 3 -49 0 -54 -8z"/>
<path d="M4895 3140 c-8 -13 -9 -13 31 -33 124 -63 214 -231 214 -396 -1 -184
-64 -315 -202 -417 -31 -23 -54 -44 -51 -48 4 -3 30 -6 58 -6 66 0 159 45 209
100 46 51 91 141 104 210 44 225 7 377 -121 497 -35 32 -81 67 -103 78 -48 23
-129 32 -139 15z"/>
<path d="M2135 1841 c-24 -11 -125 -104 -253 -233 l-213 -214 3 -106 3 -106
142 134 c78 74 147 134 153 134 24 0 48 -21 59 -51 8 -22 11 -216 11 -619 l0
-587 28 -41 c57 -85 140 -126 257 -127 67 0 88 4 128 25 29 15 148 120 299
265 138 132 255 242 259 243 5 2 9 -75 9 -172 0 -98 5 -187 11 -203 5 -15 27
-45 47 -66 95 -99 268 -133 365 -74 19 12 149 131 288 265 l254 242 5 -177 c5
-172 6 -180 33 -225 51 -88 130 -132 237 -132 65 -1 84 3 145 32 62 30 91 55
262 230 122 126 188 201 183 207 -5 6 -29 25 -54 43 l-44 32 -71 -65 c-39 -36
-78 -65 -87 -65 -28 0 -70 28 -82 55 -8 18 -12 110 -12 305 l0 278 191 184
c208 200 228 213 268 162 21 -26 21 -31 21 -612 0 -571 1 -587 21 -628 24 -50
80 -104 141 -135 62 -32 185 -33 248 -2 30 15 115 93 250 228 l205 206 -50 44
c-27 24 -53 44 -56 45 -4 0 -34 -25 -68 -55 -33 -30 -70 -59 -82 -65 -31 -17
-66 -4 -86 33 -16 29 -18 81 -23 597 -5 564 -5 565 -28 616 -66 146 -230 206
-374 136 -46 -21 -112 -80 -320 -282 l-263 -255 -5 205 c-5 194 -6 207 -29
243 -70 114 -259 162 -371 95 -22 -12 -161 -141 -310 -286 l-270 -264 0 -113
0 -113 -247 -241 -248 -242 -3 107 -3 107 -167 -165 c-92 -90 -180 -173 -195
-183 -34 -22 -66 -11 -94 32 -17 25 -18 70 -23 613 -4 425 -8 592 -17 612 -20
45 -84 108 -137 135 -70 36 -183 42 -241 14z m1831 -422 c18 -19 19 -44 24
-320 l5 -298 248 240 247 241 0 -114 0 -113 -250 -250 -249 -249 -3 114 -3
115 -181 -177 c-196 -192 -209 -201 -255 -152 l-24 26 -3 291 -2 292 195 188
c112 107 202 187 213 187 10 0 27 -9 38 -21z"/>
</g>
</svg>
